<svg width="611" height="639" viewBox="0 0 611 639" fill="none" xmlns="http://www.w3.org/2000/svg">
<rect x="305" width="161.006" height="162" rx="24" fill="#38A3A5"/>
<rect x="305" y="315" width="161.006" height="162" rx="24" fill="#38A3A5"/>
<rect x="449" y="153" width="161.006" height="162" rx="24" fill="#38A3A5" fill-opacity="0.35"/>
<path d="M144 177C144 163.745 154.745 153 168 153H281.006C294.261 153 305.006 163.745 305.006 177V291C305.006 304.255 294.261 315 281.006 315H168C154.745 315 144 304.255 144 291V177Z" fill="white"/>
<path d="M144 501C144 487.745 154.745 477 168 477H281.006C294.261 477 305.006 487.745 305.006 501V615C305.006 628.255 294.261 639 281.006 639H168C154.745 639 144 628.255 144 615V501Z" fill="white"/>
<path d="M0 339C0 325.745 10.7452 315 24 315H137.006C150.261 315 161.006 325.745 161.006 339V453C161.006 466.255 150.261 477 137.006 477H24C10.7451 477 0 466.255 0 453V339Z" fill="white" fill-opacity="0.28"/>
<ellipse cx="232" cy="396.5" rx="71" ry="76.5" fill="#3DB2FF"/>
<ellipse cx="376" cy="238.5" rx="71" ry="76.5" fill="#E8F6EF"/>
</svg>
